#!OML:ASF H:\Terrain\Patient Classification 1\Walking\steve\steve.ASF
:FULLY-SPECIFIED
:DEGREES
232
root 9.19359 16.5471 14.8907 4.74928 -2.87632 -2.31748
lowerback -0.108975 2.37859 3.03233
upperback -2.80528 3.28155 2.59754
thorax -2.80678 1.59972 0.898452
lowerneck -9.39676 -0.444032 -4.46227
upperneck 12.8245 0.348369 -1.91258
head 5.41884 -0.17795 0.156608
rclavicle -4.77083e-015 -3.18055e-015
rhumerus -34.8968 -19.8027 -77.9938
rradius 23.9501
rwrist 5.44918
rhand -21.3644 -36.5453
rfingers 7.12502
rthumb 5.02251 -66.4657
lclavicle -4.77083e-015 -3.18055e-015
lhumerus -33.2278 4.37225 89.0954
lradius 20.6178
lwrist 11.2545
lhand -22.0281 -11.4976
lfingers 7.12502
lthumb 4.38165 18.4371
rfemur -18.0201 2.14479 27.6462
rtibia 36.0175
rfoot -19.8818 11.5589
rtoes 1.43971
lfemur -29.6849 7.89242 -19.4519
ltibia 65.4094
lfoot -11.0764 2.95631
ltoes -16.679
233
root 9.19354 16.5506 15.1173 4.93196 -3.2044 -2.37299
lowerback -0.532756 2.54287 3.0318
upperback -2.8229 3.47813 2.53655
thorax -2.58169 1.69962 0.852093
lowerneck -9.12002 -0.417473 -4.43163
upperneck 12.7406 0.348164 -1.8213
head 5.34502 -0.166461 0.180573
rclavicle -4.45029e-014 -2.46493e-014
rhumerus -33.1208 -18.561 -79.2298
rradius 24.7556
rwrist 3.82176
rhand -20.7288 -36.7369
rfingers 7.12502
rthumb 5.63619 -66.6419
lclavicle -4.45029e-014 -2.46493e-014
lhumerus -34.4115 5.71988 88.1323
lradius 18.8757
lwrist 8.24183
lhand -20.8925 -10.4771
lfingers 7.12502
lthumb 5.47815 19.4321
rfemur -17.1513 2.02612 27.6769
rtibia 35.792
rfoot -20.7655 11.9204
rtoes 1.07636
lfemur -30.95 7.92485 -19.4846
ltibia 63.8749
lfoot -12.1448 2.71721
ltoes -16.0147
234
root 9.1939 16.5403 15.3379 5.05288 -3.69659 -2.73255
lowerback -0.765014 2.71897 3.35429
upperback -2.79802 3.70108 2.50932
thorax -2.40288 1.80528 0.655252
lowerneck -9.05572 -0.398981 -4.35657
upperneck 12.7382 0.346375 -1.73591
head 5.33274 -0.157398 0.19501
rclavicle 1.46976e-014 -6.36111e-015
rhumerus -31.3253 -17.2833 -80.5625
rradius 25.7328
rwrist 2.39057
rhand -20.9033 -36.9656
rfingers 7.12502
rthumb 5.46767 -66.875
lclavicle 1.46976e-014 -6.36111e-015
lhumerus -35.5421 7.2542 86.8013
lradius 17.2692
lwrist 4.81942
lhand -19.404 -9.66464
lfingers 7.12502
lthumb 6.91517 20.2024
rfemur -16.1642 2.18537 28.0566
rtibia 35.4454
rfoot -21.9764 11.804
rtoes -0.514816
lfemur -32.0577 8.19903 -19.166
ltibia 62.1274
lfoot -12.3759 2.81937
ltoes -11.1402
235
root 9.20099 16.526 15.5477 5.01156 -4.00788 -3.21315
lowerback -0.463495 2.79319 3.85823
upperback -2.88037 3.82549 2.53395
thorax -2.62672 1.85188 0.38231
lowerneck -9.02476 -0.386313 -4.25081
upperneck 12.8679 0.348293 -1.72384
head 5.36758 -0.153208 0.181759
rclavicle 1.38652e-014 6.36111e-015
rhumerus -29.8676 -15.355 -81.8213
rradius 26.9578
rwrist 0.688136
rhand -21.2607 -37.3115
rfingers 7.12502
rthumb 5.12262 -67.2296
lclavicle 1.38652e-014 6.36111e-015
lhumerus -36.8986 8.85272 85.3065
lradius 15.7604
lwrist 1.26274
lhand -18.2561 -9.44551
lfingers 7.12502
lthumb 8.02313 20.3822
rfemur -15.071 2.00431 28.5817
rtibia 35.0106
rfoot -22.4966 12.0092
rtoes -0.409709
lfemur -32.9182 8.29842 -18.6973
ltibia 60.1262
lfoot -12.5495 3.42369
ltoes -10.7512
236
root 9.21495 16.5233 15.7589 5.05402 -4.0883 -3.05825
lowerback -0.309475 2.78833 3.82109
upperback -2.98023 3.82923 2.39549
thorax -2.80924 1.84911 0.249821
lowerneck -9.07052 -0.396064 -4.2237
upperneck 12.9601 0.326718 -1.65683
head 5.404 -0.160041 0.196673
rclavicle -2.76062e-014 -2.8625e-014
rhumerus -28.5167 -13.1587 -82.8302
rradius 28.1147
rwrist -1.30237
rhand -21.0398 -37.1801
rfingers 7.12502
rthumb 5.33596 -67.0929
lclavicle -2.76062e-014 -2.8625e-014
lhumerus -38.4926 10.7963 83.5245
lradius 14.5436
lwrist -2.63734
lhand -16.8882 -9.41152
lfingers 7.12502
lthumb 9.34326 20.3614
rfemur -14.0816 1.15889 28.3632
rtibia 34.4543
rfoot -21.9983 13.0711
rtoes 2.62033
lfemur -33.7091 8.01368 -18.9505
ltibia 57.7965
lfoot -13.0365 4.18092
ltoes -13.9168
237
root 9.22935 16.5388 15.9766 5.2063 -4.32403 -2.64912
lowerback -0.539456 2.8649 3.52978
upperback -2.93492 3.90795 2.18303
thorax -2.63433 1.89585 0.205781
lowerneck -9.3897 -0.433781 -3.97261
upperneck 13.0903 0.297292 -1.92365
head 5.50004 -0.18566 0.0696169
rclavicle 5.61939e-014 2.06736e-014
rhumerus -26.9871 -11.6301 -83.591
rradius 29.2714
rwrist -2.76861
rhand -20.3682 -36.1164
rfingers 7.12502
rthumb 5.98438 -66.0118
lclavicle 5.61939e-014 2.06736e-014
lhumerus -40.024 12.5982 81.7729
lradius 13.6248
lwrist -6.01211
lhand -16.5379 -10.122
lfingers 7.12502
lthumb 9.68122 19.6355
rfemur -13.1038 0.318182 27.7937
rtibia 33.778
rfoot -21.3622 14.3267
rtoes 5.47059
lfemur -34.3718 7.82339 -19.463
ltibia 55.1071
lfoot -13.5116 4.58658
ltoes -14.1289
